<?xml version="1.0" encoding="utf-8"?>
<!-- Generator: Adobe Illustrator 15.1.0, SVG Export Plug-In . SVG Version: 6.00 Build 0)  -->
<!DOCTYPE svg PUBLIC "-//W3C//DTD SVG 1.1//EN" "http://www.w3.org/Graphics/SVG/1.1/DTD/svg11.dtd">
<svg version="1.1" id="Layer_1" xmlns="http://www.w3.org/2000/svg" xmlns:xlink="http://www.w3.org/1999/xlink" x="0px" y="0px"
	 width="100px" height="100px" viewBox="0 0 100 100" enable-background="new 0 0 100 100" xml:space="preserve">
	<g id="pencil">
		<path fill="inherit" d="M95.688,23.678c3.083-3.091,3.083-8.037,0-11.12l-8.036-8.028c-3.085-3.092-8.341-3.092-11.113,0
			l-4.014,4.014L91.978,28L95.688,23.678z"/>
		<polygon fill="inherit" points="83.518,35.595 64.311,16.383 68.889,11.793 88.1,31.013 	"/>
		<path fill="inherit" d="M2.127,94.697c-0.323,0.931,0,1.854,0.607,2.477c0.308,0.308,0.927,0.614,1.538,0.614
			c0.307,0,0.615,0,0.931,0l23.155-8.335L10.448,71.542L2.127,94.697z"/>
		<polygon fill="inherit" points="12.979,67.544 60.804,19.727 68.88,27.803 21.068,75.627 	"/>
		<polygon fill="inherit" points="72.279,30.807 80.355,38.891 32.535,86.708 24.455,78.624 	"/>
	</g>
	<polygon id="x" fill="inherit" points="90,20.881 79.115,10.002 50,39.124 20.878,10.002 10,20.881 39.122,49.998 10,79.119 
	20.878,89.998 50,60.881 79.115,89.998 90,79.119 60.873,49.998 "/>
</svg>